HIERARCHY
ROOT Hips
{
	OFFSET -3.350880 105.458916 -1.111724
	CHANNELS 6 Xposition Yposition Zposition Xrotation Yrotation Zrotation
	JOINT Chest
	{
		OFFSET 0.400637 13.519600 1.792797
		CHANNELS 3 Xrotation Yrotation Zrotation
		JOINT Chest2
		{
			OFFSET -0.374465 21.333649 1.949785
			CHANNELS 3 Xrotation Yrotation Zrotation
			JOINT Chest3
			{
				OFFSET -0.453522 14.912704 0.474656
				CHANNELS 3 Xrotation Yrotation Zrotation
				JOINT Neck
				{
					OFFSET 0.670042 17.200409 1.520793
					CHANNELS 3 Xrotation Yrotation Zrotation
					JOINT Head
					{
						OFFSET -0.177182 10.439621 0.900321
						CHANNELS 3 Xrotation Yrotation Zrotation
						End Site
						{
							OFFSET -0.175025 10.445679 0.827522
						}
					}
				}
				JOINT LeftCollar
				{
					OFFSET 4.904739 12.798706 3.733742
					CHANNELS 3 Xrotation Yrotation Zrotation
					JOINT LeftUpArm
					{
						OFFSET 13.666269 -6.096848 -9.195712
						CHANNELS 3 Xrotation Yrotation Zrotation
						JOINT LeftLowArm
						{
							OFFSET 3.935015 -33.527527 0.386258
							CHANNELS 3 Xrotation Yrotation Zrotation
							JOINT LeftHand
							{
								OFFSET -0.867182 -27.838875 11.188942
								CHANNELS 3 Xrotation Yrotation Zrotation
								End Site
								{
									OFFSET -0.189526 -6.084351 2.445407
								}
							}
						}
					}
				}
				JOINT RightCollar
				{
					OFFSET -3.486202 13.072983 4.330385
					CHANNELS 3 Xrotation Yrotation Zrotation
					JOINT RightUpArm
					{
						OFFSET -14.738829 -5.848816 -7.553450
						CHANNELS 3 Xrotation Yrotation Zrotation
						JOINT RightLowArm
						{
							OFFSET -5.955406 -33.229965 0.194371
							CHANNELS 3 Xrotation Yrotation Zrotation
							JOINT RightHand
							{
								OFFSET 1.922871 -27.896988 10.909440
								CHANNELS 3 Xrotation Yrotation Zrotation
								End Site
								{
									OFFSET 0.420265 -6.097160 2.384373
								}
							}
						}
					}
				}
			}
		}
	}
	JOINT LeftUpLeg
	{
		OFFSET 10.007866 -0.236626 -0.453629
		CHANNELS 3 Xrotation Yrotation Zrotation
		JOINT LeftLowLeg
		{
			OFFSET 2.248373 -47.148045 -3.999482
			CHANNELS 3 Xrotation Yrotation Zrotation
			JOINT LeftFoot
			{
				OFFSET -0.088301 -43.280716 -11.284483
				CHANNELS 3 Xrotation Yrotation Zrotation
				JOINT LeftToe
				{
					OFFSET 1.496662 -15.104879 18.142828
					CHANNELS 3 Xrotation Yrotation Zrotation
					End Site
					{
						OFFSET 2.743847 -0.136629 23.494926
					}
				}
			}
		}
	}
	JOINT RightUpLeg
	{
		OFFSET -10.007875 0.236427 0.453603
		CHANNELS 3 Xrotation Yrotation Zrotation
		JOINT RightLowLeg
		{
			OFFSET -1.474138 -47.347557 0.221057
			CHANNELS 3 Xrotation Yrotation Zrotation
			JOINT RightFoot
			{
				OFFSET -0.377707 -43.164074 -11.717548
				CHANNELS 3 Xrotation Yrotation Zrotation
				JOINT RightToe
				{
					OFFSET -0.725383 -16.825943 16.610796
					CHANNELS 3 Xrotation Yrotation Zrotation
					End Site
					{
						OFFSET -2.719655 -2.519167 23.362648
					}
				}
			}
		}
	}
}
MOTION
Frames: 15
Frame Time: 0.033333
-3.350880 105.458923 -1.111723 0.000000 -0.000000 0.000000 0.000001 0.000000 -0.000000 -0.000001 -0.000000 -0.000000 -0.000000 0.000000 -0.000000 0.000001 0.000000 -0.000000 0.000001 -0.000000 0.000000 0.000002 -0.000001 0.000001 -0.000000 0.000001 0.000001 0.000001 -0.000003 0.000000 0.000001 0.000002 -0.000001 0.000001 0.000001 -0.000000 0.000001 0.000001 -0.000001 0.000001 -0.000002 0.000001 0.000001 -0.000001 -0.000001 -0.000000 -0.000000 0.000001 -0.000001 -0.000000 0.000000 -0.000000 0.000000 -0.000001 -0.000000 -0.000000 0.000000 0.000001 0.000000 -0.000000 0.000001 0.000000 0.000000 0.000001 -0.000001 0.000000 -0.000001 0.000000 -0.000000 
-3.350050 105.460922 -1.116287 -0.136577 -0.419109 -0.030521 0.233874 -0.013348 -0.045740 -0.956695 0.130428 -0.074718 0.650162 0.475251 0.168097 0.565839 -0.076946 0.127191 0.000001 0.000000 0.000000 0.185393 -0.909573 -0.135439 -0.210118 -0.383632 -0.010503 -0.138196 -0.096835 0.722946 -0.000001 0.000002 0.000000 0.074680 -0.352533 0.157107 -0.182527 0.396494 -0.107007 -0.365588 0.235131 -0.244482 0.000005 -0.000001 -0.000001 0.065623 -0.007595 0.027948 0.052365 -0.027580 -0.135894 0.081056 0.678932 0.272730 -0.000000 0.000000 -0.000001 0.326582 0.000822 0.053082 -0.241312 0.072816 -0.110020 -0.082842 0.206767 0.112443 -0.000001 0.000001 0.000000 
-3.340884 105.469124 -1.124133 -1.608130 -1.253486 -0.002888 1.819246 -0.046498 -0.272413 -1.483856 0.432026 -0.451218 0.773650 1.763946 0.773809 1.857543 -0.581783 0.409483 0.000000 -0.000000 0.000000 0.164054 -1.460285 -0.116268 -0.059039 -0.149598 0.031720 0.021118 -0.044785 0.416165 -0.000003 0.000002 -0.000000 -0.013722 -0.425107 0.166628 0.714359 -0.453204 -0.266151 -0.764640 0.193399 0.027724 -0.000000 0.000001 0.000000 1.700920 0.076846 -0.052727 -0.326139 0.071722 -0.312164 0.975378 1.791533 0.535970 -0.000000 0.000000 0.000000 1.727379 -0.109722 -0.000692 -0.397932 0.085164 -0.417022 0.646663 0.693258 0.270753 -0.000000 0.000001 0.000000 
-3.328511 105.472710 -1.123174 -2.119492 -1.429354 0.010982 2.053817 -0.051302 -0.384828 -1.114929 0.462732 -0.515233 0.597311 2.476992 0.946047 2.462362 -0.978985 0.794988 0.000000 0.000000 0.000000 0.205352 -1.817030 -0.105621 -0.696702 -0.698139 -0.058580 0.224752 -0.184888 0.621993 -0.000002 0.000003 0.000001 -0.125020 -1.331770 0.168300 1.169337 -0.682983 -0.322827 -0.716715 0.400653 0.166463 0.000002 -0.000001 -0.000000 2.351111 0.086794 -0.126056 -0.560410 0.087195 -0.360384 1.526468 2.121529 0.581141 -0.000000 0.000001 -0.000000 2.125729 -0.118506 -0.004777 -0.235604 0.120171 -0.560734 0.803548 0.877747 0.352287 -0.000000 -0.000000 0.000001 
-3.307835 105.477127 -1.123886 -2.318002 -1.580778 0.039273 2.125499 -0.038949 -0.418726 -1.396738 0.521375 -0.603407 0.944595 2.782714 1.118053 2.732891 -1.138639 0.759945 -0.000001 -0.000000 -0.000000 0.107407 -1.784386 0.053365 -0.562483 -0.357332 -0.145660 0.519899 -0.041662 0.049990 -0.000004 0.000005 0.000001 -0.239010 -1.391541 0.185795 1.324524 -1.034079 -0.368468 -0.507321 0.209024 0.169466 0.000004 -0.000003 0.000000 2.385258 0.138535 -0.216783 -0.540225 0.165583 -0.303222 1.676357 2.218387 0.592274 -0.000000 -0.000001 -0.000000 2.123442 -0.158972 -0.076787 -0.154877 0.044027 -0.636701 1.073561 1.157962 0.372015 -0.000001 0.000001 0.000000 
-3.281032 105.481194 -1.135408 -2.376142 -1.346096 0.034848 1.816181 -0.036848 -0.362172 -0.121599 0.474128 -0.634544 -0.002793 2.954787 1.111001 2.879868 -1.424861 1.010172 0.000000 -0.000000 0.000000 0.124676 -2.364595 0.048083 -0.743588 -0.379233 -0.193298 0.684405 0.067129 0.208413 -0.000001 0.000001 0.000002 -0.321816 -1.867434 0.283048 1.539213 -1.322771 -0.481168 -0.947648 0.093636 0.267791 0.000004 -0.000001 -0.000001 2.483496 0.115345 -0.223337 -0.556489 0.210367 -0.327399 1.355831 2.115228 0.641504 -0.000000 0.000000 0.000000 2.406058 -0.171734 -0.152757 -0.532065 -0.051519 -0.547885 1.273595 0.931083 0.346669 -0.000001 0.000001 0.000001 
-3.246211 105.487946 -1.145994 -2.273968 -1.536953 0.019154 1.778996 -0.036183 -0.373677 -0.472780 0.500799 -0.593040 0.058992 2.886546 1.136348 3.189251 -1.330386 1.016283 -0.000000 -0.000000 0.000000 0.169454 -2.346877 0.188841 -0.560202 -0.275222 -0.317587 1.010365 0.075391 0.172190 0.000002 0.000002 -0.000000 -0.241033 -1.683737 0.310307 1.546491 -1.268924 -0.442708 -0.895307 0.063922 0.078565 -0.000000 0.000001 -0.000000 2.734878 0.086609 -0.346896 -1.173815 0.258117 -0.229138 1.817994 2.293140 0.623253 -0.000000 -0.000000 -0.000000 2.537742 -0.150680 -0.262027 -0.988649 -0.078418 -0.497939 1.461688 1.109739 0.475671 -0.000001 -0.000000 0.000000 
-3.211983 105.495621 -1.152303 -2.374613 -1.802656 0.023611 2.012176 -0.032505 -0.513032 -1.204704 0.590889 -0.613661 0.613967 2.878223 1.284671 3.441840 -1.335448 1.002048 0.000000 0.000000 0.000000 0.209321 -1.951955 0.188543 -0.560112 -0.523561 -0.305149 1.329444 -0.182318 0.198429 -0.000000 0.000000 0.000001 -0.113380 -1.511849 0.491791 1.727660 -1.115979 -0.566648 -1.008912 0.274111 -0.160501 0.000002 -0.000003 -0.000001 3.089827 0.086474 -0.408952 -1.714823 0.301233 -0.183045 2.402416 2.516005 0.578055 -0.000000 0.000000 -0.000001 2.914268 -0.126034 -0.326843 -1.358099 -0.133562 -0.543902 1.778506 1.567720 0.551083 -0.000001 0.000001 0.000000 
-3.173450 105.502357 -1.153131 -2.557750 -1.657293 -0.007487 2.371577 -0.052026 -0.526211 -0.892386 0.488445 -0.465944 0.233108 2.229915 1.192779 3.489996 -1.008401 0.727570 -0.000001 0.000000 0.000000 0.144843 -0.392373 0.524208 -0.764847 -0.893129 -0.423467 2.014706 -0.628196 -0.416751 0.000001 0.000005 0.000001 -0.005025 -1.477028 0.590366 1.634428 -0.857074 -0.701559 -0.809666 0.500485 -0.162839 0.000002 -0.000001 0.000000 3.480975 0.087119 -0.421285 -1.898105 0.376536 -0.245521 2.413155 2.594192 0.615643 -0.000000 0.000001 -0.000001 2.833348 -0.077069 -0.313859 -1.014815 -0.090173 -0.629583 1.867741 1.749918 0.616541 -0.000001 0.000001 0.000000 
-3.126395 105.503807 -1.154781 -2.774181 -1.439784 -0.080477 2.450124 -0.065522 -0.382806 -1.084066 0.419180 -0.403168 0.539463 2.316714 1.111382 3.560718 -1.244381 0.984689 -0.000001 0.000000 0.000000 0.131688 -0.635714 0.421773 -0.507685 -0.634502 -0.346112 1.507942 -0.539750 -0.581155 0.000002 0.000006 -0.000002 -0.048192 -1.786448 0.622352 1.762813 -1.066250 -0.736803 -0.789858 0.484713 -0.112584 0.000002 -0.000003 0.000001 3.630256 0.095918 -0.438742 -1.853627 0.282995 -0.150340 2.585865 2.477510 0.453644 0.000000 0.000001 0.000000 3.212866 -0.107596 -0.329251 -1.471483 0.035838 -0.573838 1.947199 1.292655 0.611932 -0.000000 0.000000 0.000001 
-3.077940 105.508240 -1.160996 -2.453020 -1.407775 -0.089811 2.282012 -0.052468 -0.383464 -1.741404 0.407338 -0.317655 1.160567 2.085639 1.059545 3.726750 -1.220330 0.905257 -0.000000 -0.000000 0.000000 0.027081 -0.740260 0.449710 -0.682790 -0.619750 -0.409637 1.578096 -0.398890 -0.521822 0.000001 0.000005 0.000001 -0.026907 -1.160312 0.584062 1.622014 -1.097844 -0.582806 -0.518757 0.368244 -0.413859 -0.000001 0.000001 0.000000 3.206152 0.063185 -0.430026 -1.689559 0.408801 -0.194994 2.507437 2.417435 0.508101 0.000000 -0.000000 0.000000 2.804174 -0.078119 -0.386410 -1.224788 -0.069927 -0.518074 1.673342 1.139794 0.558001 -0.000000 0.000000 0.000000 
-3.018454 105.512085 -1.166733 -2.488053 -1.246264 -0.127214 2.156495 -0.049931 -0.316086 -1.606157 0.291552 -0.179975 1.177390 1.590717 0.853025 3.794575 -1.223882 0.929657 -0.000001 -0.000000 -0.000000 -0.190558 -0.081003 0.664476 -0.466282 -0.256056 -0.342658 1.209004 -0.256287 -1.277704 -0.000000 0.000003 0.000002 -0.246286 -1.606196 0.385755 1.840796 -1.530970 -0.668317 -0.425989 0.247378 0.433813 -0.000002 0.000002 -0.000001 3.720842 0.090419 -0.403559 -2.151761 0.551052 -0.164901 2.766962 1.849536 0.215846 0.000000 -0.000000 0.000000 3.068849 -0.158052 -0.414351 -1.405605 -0.130887 -0.532124 2.186995 1.085431 0.610391 -0.000001 0.000002 -0.000000 
-2.957803 105.514977 -1.167825 -2.633693 -1.378096 -0.168738 2.121934 -0.049379 -0.316750 -1.019971 0.277314 -0.221719 0.658790 1.375259 0.932803 4.221043 -1.147208 0.834437 -0.000000 -0.000000 0.000000 -0.343643 0.953570 0.786692 -0.597568 -0.336184 -0.241089 1.622371 -0.307790 -1.850942 0.000002 0.000000 0.000001 -0.228864 -0.996659 0.276601 2.142923 -1.787302 -0.552137 -1.029012 0.239470 0.447914 0.000002 -0.000001 -0.000001 4.056992 0.096727 -0.379424 -2.289052 0.628406 -0.278165 2.487759 2.061892 0.395950 0.000000 0.000000 -0.000001 3.151189 -0.177434 -0.365522 -1.085306 -0.101228 -0.706539 1.854050 1.544890 0.736156 -0.000001 0.000001 0.000000 
-2.901347 105.518639 -1.166410 -2.679018 -1.595973 -0.258185 2.298339 -0.052245 -0.343335 -1.095336 0.311240 -0.245428 0.698227 2.154767 1.082310 4.000180 -1.517062 1.236708 -0.000000 -0.000000 0.000000 -0.053655 -0.719409 0.675053 -0.902229 -0.720583 -0.144859 1.433164 -0.400341 -1.318668 0.000003 0.000001 0.000002 -0.224296 -1.786527 0.450890 1.947926 -1.444934 -0.604522 -1.543640 0.372808 0.090984 -0.000001 -0.000001 -0.000001 3.996653 0.086974 -0.272304 -2.221427 0.583592 -0.444542 2.248105 2.166255 0.484066 -0.000000 0.000001 0.000000 3.209486 -0.158818 -0.199293 -0.982277 -0.032195 -0.917434 1.926067 1.775721 0.813146 -0.000001 0.000000 0.000000 
-2.839469 105.519005 -1.161688 -2.687453 -1.535695 -0.469226 1.912014 -0.058896 -0.129127 -0.986915 0.186790 -0.064638 0.754519 1.537045 0.899391 4.426987 -1.306116 0.985792 -0.000001 -0.000000 0.000000 -0.136472 0.292387 0.845843 -0.555840 -0.395477 -0.232559 1.472453 -0.384332 -1.751967 -0.000000 0.000003 0.000001 -0.177275 -1.208626 0.473123 2.024758 -1.532325 -0.558010 -1.649991 0.193839 0.097764 0.000003 0.000001 0.000001 3.966855 0.065333 -0.090674 -2.002554 0.516259 -0.442211 2.262682 2.054010 0.430371 0.000000 0.000000 -0.000000 2.734212 -0.119805 0.080160 -0.686934 -0.015905 -1.019225 1.949934 1.699482 0.771917 -0.000001 -0.000000 0.000000 
